<svg xmlns="http://www.w3.org/2000/svg" viewBox="0 0 318 210" width="318" height="210">
	<style>
		tspan { white-space:pre }
	</style>
	<path id="QB " fill="#000000" d="M143.2 79.7Q142.9 78.1 142.2 76Q141.6 73.9 140.8 71.8Q140.1 69.7 139.1 67.8Q138.2 65.8 137.3 64.4Q135.6 61.8 133.7 60.3Q131.9 58.7 129.6 58.6Q126.3 58.4 121.6 61.8Q118.6 63.9 115.3 67.3Q112.1 70.6 108.9 74.6Q105.8 78.6 102.9 83.1Q100.1 87.5 97.9 91.8Q94.7 98.1 94.5 102Q94.3 105.8 96.3 107.7Q98.1 109.3 101.2 109.5Q104.3 109.6 108 108.7Q109.8 108.3 111.9 107.7Q114 107 116.2 106.3Q118.4 105.5 120.5 104.7Q122.6 103.9 124.3 103.1Q124.1 101.9 123.8 100.7Q123.6 99.5 123.2 98.4Q122 98 121.6 96Q121.2 94 122.2 92.1Q123 90.5 124.3 89.6Q125.7 88.7 127 88.7Q127.9 88.7 128.6 89.3Q129.4 89.9 129.7 91.3Q130.1 92.9 130.5 95.5Q130.9 98 131.4 99.9Q133.5 98.8 135.5 97.6Q137.5 96.4 138.6 95.5Q140.8 93.7 141.9 91.9Q143.1 90.1 143.5 88.2Q144 86.3 143.8 84.2Q143.7 82.1 143.2 79.7ZM150.7 77.6Q151.4 80.8 151.6 84Q151.8 87.1 151.1 90.2Q150.4 93.2 148.6 96.1Q146.8 98.9 143.6 101.4Q142.6 102.2 141.2 103.1Q139.9 103.9 138.5 104.7Q137.1 105.5 135.7 106.3Q134.3 107 133.2 107.6Q134.2 111.8 135.4 115.8Q136.7 119.7 138.2 122.3Q139.1 123.9 140.3 124.6Q141.5 125.3 142.6 125.3Q144.3 125.5 145.1 126.6Q146 127.7 145.9 129Q145.8 130.6 144.7 131.8Q143.7 132.9 141.8 132.8Q138.5 132.7 135.9 131.1Q133.3 129.4 131.8 126.5Q129.8 122.7 128.5 118.6Q127.2 114.4 126.1 110.4Q124 111.3 121.5 112.3Q119.1 113.3 116.7 114.2Q114.4 115 112.3 115.7Q110.3 116.3 109 116.6Q102.2 118.1 97.3 117.3Q92.4 116.4 89.5 113.5Q86.1 110.1 86.1 104.1Q86.1 98 90.3 89.5Q92.6 84.9 95.7 80.1Q98.8 75.2 102.4 70.7Q106 66.1 109.8 62.3Q113.6 58.4 117.4 55.7Q124.5 50.7 130.4 50.9Q134.8 51 138.3 53.5Q141.8 56 144.1 60.3Q146.2 64 148 68.8Q149.8 73.6 150.7 77.6ZM223.4 97.6Q223.5 101.5 221.7 105.7Q219.9 109.8 215.6 114Q212.4 117 208.6 119.8Q204.8 122.6 200.5 125Q196.3 127.3 191.8 129.1Q187.4 130.9 183.1 132Q180.7 132.5 178.1 132.5Q175.5 132.4 173.6 130.5Q172.2 129.1 172.2 127.6Q172.3 126 173.4 124.9Q174.2 124.1 175.3 123.8Q176.5 123.5 177.7 124.3Q178.4 124.8 179.4 124.8Q180.5 124.7 181.8 124.4Q184.9 123.7 188.8 122.2Q192.7 120.7 196.6 118.6Q200.6 116.5 204.2 113.9Q207.8 111.3 210.3 108.5Q215.7 102.5 215.7 98Q215.7 95.4 214.1 93.1Q212.6 90.8 209.4 88.5Q208.4 87.8 206.6 87.3Q204.9 86.7 202.8 86.4Q200.7 86 198.4 85.9Q196.1 85.7 193.9 85.7Q191.3 85.7 189.7 84.8Q188.2 83.8 187.2 81.7Q186.5 80.1 186.9 78.5Q187.3 76.8 188.9 75.7Q192.4 73.2 196.2 71.3Q200 69.4 204.4 66.3Q207.5 63.8 206.9 62.1Q206.3 60.5 202.5 59.9Q200.7 59.7 197.8 59.4Q195 59 191.7 58.6Q188.4 58.1 184.9 57.6Q181.5 57.1 178.5 56.6Q178.5 61.2 178.2 66.7Q178 72.2 177.7 77.9Q177.5 83.5 177.3 88.9Q177.2 94.2 177.4 98.5Q177.4 100.9 179.7 102.1Q181.4 103.2 181.7 104.7Q182 106.2 181.3 107.5Q180.6 108.6 179.3 109.1Q178 109.6 176.3 109Q174.1 108.1 172.1 105.9Q170.2 103.7 170 99.9Q169.7 95.3 169.8 89.5Q169.9 83.6 170.1 77.6Q170.4 71.6 170.7 65.8Q171 60 171.1 55.4Q168.8 55 166.5 54.5Q164.3 53.9 162.2 53.3Q160.1 52.7 158.4 52Q156.7 51.3 155.5 50.6Q153.8 49.6 153.7 48.1Q153.6 46.5 154.4 45.3Q155.2 44.2 156.6 43.7Q158 43.2 159.6 44.2Q160.9 45 163.4 45.8Q165.9 46.5 169.2 47.3Q172.6 48 176.6 48.8Q180.6 49.5 184.9 50.1Q190.1 50.9 194.9 51.5Q199.8 52 203.7 52.5Q209.1 53.3 212.2 55.2Q215.4 57.1 216.2 59.7Q217 62.3 215.5 65.3Q214.1 68.3 210.5 71Q207.5 73.2 205.2 74.6Q203 75.9 200.4 77.3Q199.5 77.8 199.6 78.4Q199.7 79 200.8 79.2Q202.1 79.3 203.8 79.5Q205.5 79.6 207.2 80Q208.9 80.3 210.6 80.9Q212.3 81.5 213.8 82.4Q218.3 85.3 220.8 89.1Q223.3 92.8 223.4 97.6Z" />
</svg>